<svg viewBox="0 0 482.81 513.53" xmlns="http://www.w3.org/2000/svg"><path d="m118.03 415.2c-3.89-8.55-12.31-13.22-19.18-4.55-7.54 8.13-15.23 17.55-23.12 25.39-7.53 7.11-16.68 12.56-25.1 18.37-11.05 5.7-38.48 24.53-48.61 13.95-3.84-10.69-.75-24.44-1.98-35.94-.63-7.89 4.7-12.84 11.68-14.97 7.42-3.17 14.89-6.57 21.62-11.29 25.52-20.36 48.06-46.4 58.57-77.44 16.06-36.43 32.84-72.51 48.74-109.12 6.53-15.84 15.15-32.32 21.72-47.9 7.49-16.51 14.8-29.08 32.18-36.8 20.31-8.34 43.97-5.29 65.54-5.07 27.39-.2 50.08 11.49 60.43 38.02 5.13 13.89 18.79 25.19 8.28 39.93-4.72 9.16-11.76 17.99-17.54 26.39-7.66 14.22-13.6 11.02-20.34-1.57-18.35-30.18-19.58-60.25-64.45-45.64-13.61 8.95-18.26 26.09-25.07 39.99-12.18 26.02-23.75 52.51-35.67 78.66-4.05 8.66-7.84 17.57-11.89 26.14-3.15 7.4-8.03 13.95-7.69 22.14 1.97 17.74 13.67 32.67 20.7 48.58 9.24 18.79 21.12 36.62 20.39 57.92-.82 13.74 1.4 33.08.18 44.83-1.57 8.62-10.51 7.34-18.91 7.41-8.31-.85-18.84 2.5-25.67-3.34-6.48-10.34-.51-33.34-3.15-46.31-.19-1.16-1.54-1.77-1.99-4.91 0 0-11.7-29.58-19.68-42.9z" fill="#eaeae8"/><path d="m384.16 319.32c5.14 4.67 6.14 11.76 9.25 17.7 2.6 5.11 5.51 10.28 8.09 15.46 3.02 6.66 7.37 11.96 11.73 17.72 5.56 8.58 11.84 16.11 19.38 23.22 9.13 8.26 20.57 15.76 31.3 21.41 5.7 2.78 12.75 3.34 15.8 9.84 1.6 3.4 2.2 7.82 2.36 11.75.32 7.22.98 15.17.67 21.87-.14 20.87-23.88 10.09-35.04 4.61-20.38-7.9-37.39-22.81-52.98-38.27-5.15-5.3-9-12.18-14.82-16.73-12.61-8.5-19.61 10.44-23.69 19.45-16.8 37.25-13.42 26.27-12.65 65.99-.16 5.66-.7 12.04-4.18 16.55-3.34 4.14-11.08 3.46-17.01 3.6-12.5-.38-28.66 3.01-28.16-14.12.19-14.33-.77-31.07.36-44.88 7.38-30.39 26.39-57.15 39-85.39 8.2-19.62-3.64-25.67-6.08-42.57.04-3.79 2.71-7.25 6.53-7.44 5.16-.23 10.73.6 16.01.2 11.57.58 23.43-7.28 34.03-.07l.11.09z" fill="#eaeae7"/><circle cx="242.04" cy="54.81" fill="#eaeae7" r="54.81"/><path d="m204.66 317.01c-1.46-1.92-3.47-3.58-3.43-6.33-.19-2.59.34-5.37.78-7.94 1.34-7.47 2.01-14.94 2.13-22.58-.04-1.59-.08-4.51-1.98-4.69h-.12c-1.16.04-2.7 1.55-3.56 2.65-15.87 18.79-19.81 49.97-.76 67.83 3.52 2.84 6.26 1.58 6.7-2.73.68-4.98 1.58-14.38 1.71-20.21-.73-1.94-1.22-3.96-1.47-6.01z" fill="#c200ea"/><path d="m201.02 299.73c-.39 4.28-3.99 9.03-1.14 15.21 1.17 2.54 4 2.93 4.95 3.15-1.33-8.12 1.14-16.8 7.44-22.33.7-.62 1.43-1.18 2.16-1.71.19-.33.38-.65.6-.97.9-1.3 2.05-2.37 3.3-3.29l-.19-.61c.97-2.18.01-4.64-2.86-7.4l-.13-13.74-2.01-.86c-6.19 3.3-9.65 6.17-14.66 10.95l3.61 12.5c-2.8 3.63-.83 6.49-1.07 9.1z" fill="#bd01e9"/><path d="m217.14 354.18c2.8-4.32-.03-6.02-4.26-6.45 1.07-3.31-.23-6.41-1.49-9.38 1.22-2.55 1.53-4.79.98-6.74-2.25-1.77-4.16-3.96-5.48-6.78-.83-1.76-1.44-3.62-1.84-5.51-1.13 4.8-8.79 23.16-7.32 26.64.13.1 4.58 3.13 6.01 4.08 5.9 3.91 13.18 7.48 20.41 7.14-.26-2.84-2.6-3.84-7-3z" fill="#bd01e9"/><path d="m434.14 230.18c-2.13-1.19-3.03-3.69-2.7-7.47-12.54-9.75-24.63-20.54-36.26-32.37-1.39-2.56-.83-2.95 1.96-3.16 27.35.41 37.88 17.51 37 43z" fill="#23e8da"/><path d="m337.23 289.12c1.32-3.18-.38-4.82-5.09-4.94-.05-.06-.13-.1-.19-.15-.65-.12-1.3-.26-1.94-.44-1.44-.42-2.46-1.32-3.03-2.43-.27.25-.55.59-.85 1.03.2-.58.4-1.13.58-1.66-.59-1.71-.25-3.75 1.09-5.3.14-.16.26-.33.39-.49.24-3.46-1.65-5.63-8.09-7.84-3.92-1.35-7.84-.5-9.97 3.28-.48 1.01-2.32 2.07-2 4 2.82-.99 4.3-.49 4.43 1.49 7.09 7.51 9.66 12.61 8.73 23.12-4.16-.98-5.88-.18-5.17 2.39 6.35 1.75 13.43 2.42 20 2 5.25 1.15 9.16.55 4.4-4.66l-3.31-9.41z" fill="#015edf"/><path d="m379.67 281.11c-1.01-2.03-2.18-3.33-3.53-3.93-.47-.05-.95-.01-1.43.06-.06.03-.12.07-.18.1-7.16 3.92-14.51 3.2-22.28 4.74-6.59 1.3-14.3 3.29-21.03 1.81.33.09.64.18.92.29l3.89.73c.72 2.99 9.19 2.37 10.11-.73 3.75 1.99 8.35 2.39 13.8 1.2l.45 1.7c10.79 7.67 10.88 11.97.27 12.91-.6.6-.74 1.34-.52 2.19 10.19-.23 19.12-4.75 28-9 4.83-4.55-3.25-11.07-8.47-12.07z" fill="#0183de"/><path d="m397.14 187.18c-1.9 2.23.09 1.94 1.14 3.08 7.91 8.47 17.41 16.21 25.56 23.95 1.04.99 7.3 6.83 7.81 6.97 1.05.3-.3-2.48 1.48-1.99l1.01 10.99c-.09 2.49.86 6.08-1 8-1.38-1.91-2.21-4.13-2.47-6.66-5.48-3.16-10.05-7.29-14.16-12.1l.64-2.24c-2.73-.53-4.87-2.58-6.41-6.16-2.28.28-5.75-1.33-5-3.75-6.7-5.02-12.92-10.6-18.66-16.74-2.15 1.02-3.73.7-5.93-.35-.86 2.82-1.88 2.59-3 0 5.11-3.98 12.88-3.09 19-3z" fill="#17e5d9"/><path d="m300.14 275.18c-2.36-.77-5.32-2.05-8-3-1.82-.46-4.03-1.01-4.11 1.13l.26 15.08c-1.5.93-1.43 1.76-.66 2.46.15.04.29.09.44.13 2.12.59 3.19 2.1 3.45 3.77.1.16.2.33.28.5.04.02.09.05.13.07-.02.03-.04.05-.06.08.55 1.24.52 2.72-.44 4.25-.11.17-.21.33-.31.5 0 .01.01.03.02.04-1.86 4.27.75 14.71 3.15 18.49 2.78 4.39 3.14 4.44 6.85.51 1.85-2.1 2.43-2.98 4-5l.4-2.69c-5.61-10.85-7.41-22.95-5.4-36.31z" fill="#2938d8"/><path d="m300.14 275.18c1.95.64 4.89.81 7 1 .86.25.84.59 0 1l1.72 1.44c-1.37 8.17-2.79 18.49 2.76 25.36l-.48 2.2c-2.33 3.74-3.56 4.87-6 8-8.47-9.78-7.49-23.38-7-35.55.08-1.92-1.02-4.01 2-3.45z" fill="#1d3fda"/><path d="m346.14 284.18c3.09-.23 14.28 15.55 13.76 16.71-2.76 1.81-6.01 2.57-9.76 2.29-4.3.72-9.99 2.37-14 0 9.31-.6 3.66-.6 2.52-4.02-.68-2.06-3.18-8.64-3.4-9.72-.39-1.92 1.05-4.11.88-4.25s-2.46-.36-4.01-1.01c5.23 1.04 9.21.28 14 0z" fill="#0169df"/><path d="m421.79 255.69c-1.84-1.68-13.11-8.03-14.65-5.51l-.49-.07c-1.09 2.63-3.02 4.99-4.98 7.16-2.83 3.13-5.88 5.99-9.19 8.51-.18.18-.37.33-.55.5l.22.91c.93 2.43 1.82 2.64 2 0 2.55.45 5.08-1.14 7.58-4.76l8.75 6.64c1.33 2.34 2.89 3.72 4.67 4.12 2.58-2.95 5.69-4.55 7-9 2.46-3.51 3.03-5.39-.35-8.49z" fill="#02b4dc"/><path d="m346.14 284.18c5.55-.33 10.55-.11 15.99-2-1.45 6.91 3.55 5.76 6.48 9.02 1.09 1.22 2.84 7.68 2.54 7.96-.42.39-9.45 2.64-11.01 3.02-3.48.83-6.37 1.47-10 1 1.51-.26 7.97-1.09 7.99-1.49.16-2.58-10.82-14.09-11.99-17.51z" fill="#0276df"/><path d="m332.7 263.46.96 1.14c1.37-3.03 3.29-5.65 4.81-8.53.07-.69.32-1.41.79-2.15 1.75-2.71 3.58-4.18 4.84-7.17.3-.7.64-1.37 1.01-2.01l-.02-.98c-5.53-4.38-10.6-6.52-16.96-7.59-2.8 4.5-4.45 7.34-7 12l1.17 2.48c5.1.7 9.61 2.39 13.55 5.07l-3.17 7.73z" fill="#027fde"/><path d="m218.14 289.18.72.24c1.15-.8 2.36-1.5 3.57-2.18 5.14-2.89 10.41-4.88 16.12-5.79l.59-1.27c-4.51-.45-8.76-1.51-12.76-3.17-.87-3.9-1.82-7.8-2.87-11.7 1.88-.47 2.85-.98 2.63-3.13-5.14-.49-8.92 2.82-13 5l.16 15.26z" fill="#b502e5"/><path d="m327.12 276.23c.19-.35.42-.69.69-1 2.05-2.37 3.42-5.16 4.69-8 .37-2.37.62-5.51-.36-6.81-1.61-2.14-13.47-9.57-15-4.24-2.39 4.72-4.73 9.18-7 14 5.06-3.76 15.28-1.23 16.85 4.73.12.47.16.9.13 1.32z" fill="#026bde"/><path d="m326.46 278.44c-.77 1.54-1.74 2.67-.32 3.74.4-.1.79-.27 1.18-.48-.66-.94-.94-2.1-.85-3.26z" fill="#026bde"/><path d="m348.57 239.77c.15-.2.29-.41.44-.61 1.69-2.4 2.88-5.1 4.66-7.44 1.26-1.65 2.91-2.97 4.36-4.44.05-.06.09-.11.13-.17l1.05-2.18c-3.95-1.25-7.4-3.36-11-5.91-1.83-6.47-4.87-4.19-8.08.16-4.32 3.32-3.65 4.91-6 8l.51 2.14c4.95 1.95 9.53 4.57 14.01 7.42-.83 1.22-1.14 2.14-.09 3.04z" fill="#0297dd"/><path d="m349.01 239.16c.72-1.02 1.34-2.09 1.96-3.17-1.54-1.57-14.47-8.83-16.83-8.81-2.89 3.8-3.58 5.12-6 9 1.11 4.91 4.06 1.99 6.99 3.51l9.42 6.1c1.2-2.41 2.91-4.43 4.46-6.64z" fill="#028bdd"/><path d="m404.98 275.83-8.95-9.84-1.89 1.2c-.51-.16-1.38.11-2 0l-1.05-.15c-5 4.38-10.68 7.1-16.56 10.31-.34.18-.67.35-1.01.51.81-.17 1.64-.33 2.62-.67 1.79 1.43 4.42.97 7.88-1.39 5.51 3.77 9.89 7.9 13.12 12.39 2.99-1.99 4.01-1.34 7-5 3.85-2.64 7.82-7.07.84-7.35z" fill="#0299de"/><path d="m234.07 339.17c-.57 0-1.16-.01-1.74-.06-.06.02-.12.04-.18.07-.1-.04-.21-.07-.31-.11-2.32-.22-4.67-.78-6.67-1.41-1.42-.45-2.84-.93-4.24-1.46-.79 2.1-1.53 4.22-2.29 6.56 1.78 5.08-1.71 8.87-4.48 11.41 0 0 8.1 2.6 9.99 3.01 1.86.4 2.79.77 5 1 1.1-.68 3.01-1.25 5.73-1.69 1.16-1.18 2.62-15.31-.8-17.32z" fill="#ac01e2"/><path d="m222.94 268.88c.65 2.31-.28 4.72.72 7.28 2.66 6.82 10.06 3.99 15.48 4.02.15.42.4.78.71 1.07.72-.09 1.45-.18 2.18-.24 1.25-.1 2.49-.13 3.73-.13.15-.21.29-.44.37-.7h2c-.04-3-4.86-3.75-6-1-.84-1.81-2.85-2.5-6.01-2.07 1.16-5.36.6-9.95-1.69-13.75 3.61.53 5.85-.2 6.7-2.18 1.82 2.88 7.31 3.08 9 0 1.63 2.93 4.16 1.46 2-1-7.88-.6-18.64-.66-26 2-10.31 3.72-4.42 2.4-3.2 6.7z" fill="#a901e0"/><path d="m308.14 274.18c5.25-8.04 4.49-1.9 6.1.39 7.19 10.22 9.48 7.45 8.79 22.12-.08 1.73 1.29 4.34 1.11 4.48-1.47 1.08-6.48-2.11-8 .01h-1l-1.53-.31c-1.1-6.05-1.73-12.43-1.89-19.14-1.21-1.77-2.74-3.29-4.58-4.55.08-.33-.1-.72 0-1 .36-1.01.44-1.14 1-2z" fill="#0555de"/><path d="m394.14 267.18 7.98-8c2.59 5.54 11.8 6.76 13.02 14-3.03 3.47-6.56 8.42-11 10 6.3-7.72 2.05-4.6-.06-5.51-.88-.38-7.91-9.85-9.94-10.49z" fill="#02a5dd"/><path d="m347.08 220.69c1.84 1.62 3.77 2.1 5.61 3.45 1.25.93 1.32 2.94 1.47 3.04.91.58 2.45-4.21 3.97-.02.38-.46.8-.91 1.22-1.35.08-.1.17-.2.24-.3.45-.61.98-1.08 1.54-1.42 1.59-1.42 3.3-2.73 4.93-3.93.78-2.76-1.66-5.37-8.38-7.6-2.23-4.28-4.42-6.07-6.55-5.38-3.74 3.46-9.13 7.14-11 12 7.24-5.57 4.44-.68 6.94 1.51z" fill="#02a5dc"/><path d="m297.69 320.14c-3.24-2.88-5.26-15.41-6.55-19.96-.01 0-.03 0-.04 0-1.54 2.5-2.75 4.94-4.78 7.18-.57.62-1.14 1.24-1.72 1.85-2.14 5.11 1.39 14.91 3.4 19.85l2.14 1.13c1.76-.19 3.43-1.52 5-4 2.88-2.84 3.91-4.62 6-7-1.42.44-1.57 2.63-3.45.96z" fill="#3631d5"/><path d="m368.14 216.24.9 1.74c4.01-2.99 8.02-6.33 12.86-7.8 4.61-4.21-6.19-9.78-11.89-11.58 1.45-1.23 2.02-3.15.55-4.5-1.07-.97-7.14 3.16-8.42 4.07-4.4 2.21-5.61 4.13-9 7l1.93 1.18c4.51-2.98 16.27 6.12 13.07 9.88z" fill="#02bfdb"/><path d="m376.14 277.18c3.79-1.33 10.8-6.39 9.94-1.55 3.22 2.07 9.66 6.5 12.01 9.11 1.69 1.88-.52 2.02-.95 3.44-3.9 2.6-4.88 3.03-9 5 1.38-1.27-3.17-7.66-3.54-8.02-1.53-1.49-8.63-.5-8.46-7.98z" fill="#0291de"/><path d="m364.2 217.83c.98 1.31.77 2.56 0 3.73 1.69-1.29 3.37-2.48 4.82-3.56.23-.17.46-.35.69-.52 1.12-1.49 2.01-3.14 4.42-3.31.23-2.09-3.5-.45-4-.98-.36-.38.37-3.23 0-4.02-.04-.08-1.39.93-1.74.68-5.2-3.75-8.53-8.97-15.25-4.68-.9.76-1.35 1.4-2 2l4.97 6.56c.89 1.44 7.82 3.73 8.09 4.09z" fill="#03b2dc"/><path d="m414.61 236.94c-1.34 1.39-2.54 3-3.6 4.82-.4.82-.83 1.64-1.28 2.46-.58 1.24-1.12 2.56-1.59 3.96-.2-.04-.36-.05-.53-.07-.17.31-.37.62-.57.92-.08.26-.18.53-.28.78.11.12.24.24.38.37l13.43 7.06c2.43 2.77 2.54 3.64 1.57 6.94 4.78-4 6.15-10.36 8-16-7.48-.77-12.16-4.93-15.53-11.24z" fill="#02c3db"/><path d="m315.14 301.18c-.29 1.84-3.29 3.85-4 5-7.23-5.31-5.82-21.53-4-29 11.46-1.51 5.07 17.29 8 24z" fill="#0f4bdc"/><path d="m290.14 330.18c-1.93-.61-3.82.51-5.67 3.37-1.73-6.35-3.51-12.47-5.33-18.37-.01-.01-.03-.02-.05-.04-3.45 3.96-6.63 8.18-10.8 11.42.11.95 1.34 1.85 3.69 2.68-.62 5.54.64 10.56 3.8 15.06l4.36-3.12c5.29-2.84 12.04-9.63 15-15-1.36 1.34-3.52 2.69-5 4z" fill="#5225d2"/><path d="m268.14 328.07-1.18-.53c-2.81 1.96-5.76 3.44-8.83 4.57v.06c-3.26 1.57-2.52 20.66-1.66 21.36 1.09.47 2.31.35 3.66-.36 5.1-2.03 5.49-2.33 10-5l-1.97-2.34-.02-17.77z" fill="#6e18d3"/><path d="m276.15 343.18c-.32-.39.88-2.01.42-3.02-.54-1.19-2.56-2.12-2.92-3.83-.41-1.94 1.16-4.67.3-7.44-.89-2.89-4.38-2.05-4.52-3.23-.59.5-1.19.99-1.83 1.45-.48.35-.97.66-1.46.99l.03 20.6 3.97-.51c3.41-2.02 7.79-3.23 10-7-.62.34-3.85 2.17-3.99 2z" fill="#5d1fd1"/><path d="m331.96 268.41c.56-1.2 1.08-2.41 1.61-3.62.93-2.1 2.13-4 3.29-5.91.67-1.71 1.12-3.21.84-3.7-2.6-4.67-12.04-5.28-16.57-7-1.49 2.73-2.62 5.27-4 8 5.22-2.2 7.89 4.07 12.92 4.1l1.9 8.13z" fill="#0375de"/><path d="m244.14 337.18c0-.1-.04-.18-.06-.27-1.78.79-3.55 1.31-5.15 1.29-1.94.91-4.35 1.1-6.8.9v.08c3.26.91 1.54 15.65 1.08 16.35-1.22 1.85-4.82-1.07-4.08 2.65 3.55.37 9.38.28 13 0l1.94-1.5-.64-15.71c3.41-.76 4.22-5.21.7-3.79z" fill="#9d03dc"/><path d="m263.14 283.18c0 .07.01.14.02.2.99.26 1.98.52 2.97.81l1.74-1.6c.12-4.89 1.04-9.75 2.77-14.59-1.4-1.03-1.24-1.96.49-2.8-2.26-.51-3.04-1.87-7-2l-7.2-1.24c-1.54.82-1.48 18.16-.8 18.83l7 2.41z" fill="#6917d2"/><path d="m263 283.34.14-.16c-.82-1.65-4.58-1.16-5.05-2.66-.26-.83-.58-16.74.04-17.34.22-.21 4.97-.03 6.01 0-3.14-1.59-8.56-2.74-12-3-.31.92-1.15.95-2 1l-1.92 1.51c.75 6 .72 11.83-.08 17.49h-2l.3.71c5.57.07 11.09 1.05 16.56 2.45z" fill="#7c11d4"/><path d="m376.1 194.15c-2.57 6.27 8.46 13.44 14.04 14.03 0 0 0 .02.01.02 2.13-.36 4.25-.53 6.19-.35 2.16-.69 3.4-1.77 3.7-3.26.32-2.64-15-15.36-18.91-14.41-.9.18-2.16-.21-3 0-2.4.59-4.7 1.07-7 2 .36 2.13 2.01 2.78 4.96 1.97z" fill="#05dad8"/><path d="m252.9 336.42-1.76-1.24c-.14-.36-.37-.65-.66-.89-.78.17-1.57.33-2.36.47-1.34.82-2.75 1.59-4.16 2.2.06.07.11.15.18.22-.02.07.83.6 1.02.96l-3.77 1.48.75 18.55c3.66-.28 8.48-1.06 12-2-.14-.9-.56-1.64-1.06-2.37-.98-1.45-1.96-14.24-.18-17.39z" fill="#8f09d8"/><path d="m288.06 290.98c.15.04.28.09.42.14-1.22-1.03 1.64-.45 1.74-2.37 1.44-4.48-3.06-15.49 1.91-16.57-3.68-.68-7.77-4.36-11.13-1.77-.69 4.86-2.11 13.22-.41 18.3 2.5.8 5 1.57 7.47 2.26z" fill="#3c2ed4"/><path d="m369.13 195.18c1.88 1.74-2.06 2.17-2 2.48.74 3.85 3.96 2.63 5.25 3.5 1.42.95 9.5 6.49 9.76 7.04.1.22-1.67 1.88-2.92 3.02 1.01-.47 2.05-.88 3.13-1.18 2.34-.64 5.06-1.37 7.78-1.83 0 0 .01-.02.01-.03l-12.89-10.11c2.74-11.28.22-4.38-6.11-5.89-2.8 1.13-6.93 3.71-9 6 .82-.41 6.71-3.26 6.99-3z" fill="#05cdda"/><path d="m258.14 349.73c-.19-5.76-.38-11.84 0-17.55-.02-.02-.04-.03-.06-.04-2.26.83-4.57 1.47-6.92 2-.09.33-.1.68-.02 1.04l-1.59 6.66c.02 2.7.97 5.33 1.21 8 .38 4.39-3.23 4.62 3.38 6.33 2.5-.66 4.31-2.33 6-3-3.02.56-1.94-1.53-2-3.45z" fill="#7e10d4"/><path d="m274.62 286.79c2.19.71 4.38 1.42 6.55 2.11l1.97-19.72c-2.39-.75-4.58-2.05-8-3-4.18.23-3.96 16.89-2.68 18.97l2.16 1.63z" fill="#4b26d3"/><path d="m424.25 224.57c-2.08-1.97-5.02-5.18-7.11-7.39-3.15-2.1-4.9-2.55-5.27-1.36 1.72 2.42 2.54 5.43 2.8 8.43.2 2.24-.06 4.34-.58 6.37-.02 1.85-.33 3.69-.86 5.53 2.51-.72 3.15-3.7 1.91-8.96.81-1.26 1.86-.65 3.14 1.81l11.51 9.1c.02 1.68.47 3.04 1.35 4.1-2.74 1.58-2.74 2.91 0 4 .93-3.12 1.77-4.18 2-8 .68-11.35-2.15-7.24-8.89-13.61z" fill="#0ee1d9"/><path d="m431.14 242.18c-5.46-1.74-9.58-6.04-13.15-10.38.46-2.58.18-5.86-2.85-4.62-.44 3.71-.65 4.83-1.61 7.82-.93 3.92-2.91 7.83-5.26 11.78-.14.34-.3.67-.47 1 .1.14.21.29.34.4 1.76-2.58 4.93-10.02 5.5-10.01.84.01.48 2.39 1.46 3.59 3.21 3.89 10.27 10.49 15.04 6.42.28-.85.88-1.58 1-2 .14-1.28-.21-2.79 0-4z" fill="#03cfda"/><path d="m266.14 284.18s0 0 0 .01c2.99.85 5.95 1.78 8.9 2.73-2.2-5.46-1.13-14.89.1-20.74-1.43-.4-2.54-.67-4-1-4.94-.4-1.93-.21-2.32 1.76-1.13 5.77-4.04 11.37-2.68 17.24z" fill="#5a20d2"/><path d="m225.16 337.66c-5.09-1.61-10.2-3.59-14.02-7.1-.27 2.84-1.82 7.33-1.8 7.95.06 1.57 2.24 3.5 1.9 7.18-.53 5.81-6.04 3.73 4.9 4.5.89 3.57-1.22 2.05-1.99 3.97.9.19 2.31-.24 2.99.01 10.73-.32-2.18-13.39 7-14.5l-2.99-2.49c3.14-.17 8.28 2.14 10.99 1.99.13 0 .26-.03.38-.05-2.55-.16-5.16-.77-7.36-1.46z" fill="#b901e7"/><path d="m411.99 209.36c-1.07-.81-4.26.25-4.85-.18-.16-.12 1.02-1.81.8-2.41-.45-1.24-2.04-1.31-2.86-2.31-3.68-4.48-2.94-2.12-4.87-3.79-3.8-3.29-7.65-7.96-12.06-10.98l5.99-1.48c-4.96-1.3-9.01 1.19-12.99 1.99l15.44 12.06c4.27 5.82-1 2.09-1.41 5.53.59.01 1.16.05 1.72.12 1 .13 2.1.4 3.24.76 3.99.54 7.08 1.65 9.49 4.81 1.31 1.01 2.31 2.26 3.07 3.65l.47-.93c2.07 1.72.3 2.51 3.99.99-1.16-1.23-4.78-7.54-5.15-7.82z" fill="#12e1d9"/><path d="m241.14 261.18c2.8-.9 3.32 15.7 2.92 16.51s-1.14 1.2-1.92 1.49c-1.98-.25-6.36.77-7.57-.93-1.41-1.99 1.19-8.6-.66-12.34-.94-1.9-3.48-2.39-3.77-3.23-.57-1.69 9.99-1.45 11-1.5z" fill="#9b02db"/><path d="m250.14 261.18 1 18.99c-.98-.05-2.03.13-3 .01-1.65-.2-3.84-.73-6-1l-1-18c2.98-.14 6.02.17 9 0z" fill="#8d07d7"/><path d="m285.1 308.66c-1.89 2.02-3.82 3.99-5.64 6.06-.04.04-.07.09-.11.13-.07.11-.14.22-.21.33-3.31 5.99-.43 3.11-.03 4.72 1.04 4.23 1.02 9.26 3.05 13.56 2.65 5.63 5.45-1.03 7.99-3.28-.55-7.19-5.63-14.91-5.04-21.52z" fill="#442ad3"/><path d="m415.14 227.18c.15-1.23-.84-4.17.99-3.99.89 4 15.53 12.63 16.06 14.72.43 1.7-.85 3.07-1.05 4.27-2.52 5.06-14.47-8.26-15-9.73-.49-1.38.86-4.3-1-5.27z" fill="#04d8d9"/></svg>